<svg class="svg-sprite">
  <symbol id="client+" width="23" height="16" viewbox="0 0 23 16" xmlns="http://www.w3.org/2000/svg">
    <path d="M14.5 8C16.71 8 18.5 6.21 18.5 4C18.5 1.79 16.71 0 14.5 0C12.29 0 10.5 1.79 10.5 4C10.5 6.21 12.29 8 14.5 8ZM5.5 6V3H3.5V6H0.5V8H3.5V11H5.5V8H8.5V6H5.5ZM14.5 10C11.83 10 6.5 11.34 6.5 14V16H22.5V14C22.5 11.34 17.17 10 14.5 10Z"/>
  </symbol>
  <symbol id="delete" width="12" height="12" viewbox="0 0 12 12" fill="none" xmlns="http://www.w3.org/2000/svg">
    <path d="M6 0C2.682 0 0 2.682 0 6C0 9.318 2.682 12 6 12C9.318 12 12 9.318 12 6C12 2.682 9.318 0 6 0ZM6 10.8C3.354 10.8 1.2 8.646 1.2 6C1.2 3.354 3.354 1.2 6 1.2C8.646 1.2 10.8 3.354 10.8 6C10.8 8.646 8.646 10.8 6 10.8ZM8.154 3L6 5.154L3.846 3L3 3.846L5.154 6L3 8.154L3.846 9L6 6.846L8.154 9L9 8.154L6.846 6L9 3.846L8.154 3Z" fill="#F06A4D"/>
  </symbol>
  <symbol id="subtract" width="16" height="16" viewBox="0 0 16 16" xmlns="http://www.w3.org/2000/svg">
    <path fill-rule="evenodd" clip-rule="evenodd" d="M8 16C12.4183 16 16 12.4183 16 8C16 3.58172 12.4183 0 8 0C3.58172 0 0 3.58172 0 8C0 12.4183 3.58172 16 8 16ZM3 8C3 5.24 5.24 3 8 3C10.76 3 13 5.24 13 8C13 10.76 10.76 13 8 13C5.24 13 3 10.76 3 8ZM9.5 6C9.5 5.17 8.83 4.5 8 4.5C7.17 4.5 6.5 5.17 6.5 6C6.5 6.83 7.17 7.5 8 7.5C8.83 7.5 9.5 6.83 9.5 6ZM5 9.99C5.645 10.96 6.75 11.6 8 11.6C9.25 11.6 10.355 10.96 11 9.99C10.985 8.995 8.995 8.45 8 8.45C7 8.45 5.015 8.995 5 9.99Z"/>
  </symbol>
  <symbol id="fb" width="16" height="16" viewbox="0 0 16 16"          xmlns="http://www.w3.org/2000/svg">
    <path d="M7.99999 0C3.6 0 0 3.60643 0 8.04819C0 12.0643 2.928 15.3976 6.75199 16V10.3775H4.71999V8.04819H6.75199V6.27309C6.75199 4.25703 7.94399 3.14859 9.77599 3.14859C10.648 3.14859 11.56 3.30121 11.56 3.30121V5.28514H10.552C9.55999 5.28514 9.24799 5.90362 9.24799 6.53815V8.04819H11.472L11.112 10.3775H9.24799V16C11.1331 15.7011 12.8497 14.7354 14.0879 13.2772C15.3261 11.819 16.0043 9.96437 16 8.04819C16 3.60643 12.4 0 7.99999 0Z"/>
  </symbol>
  <symbol id="mail" width="16" height="16" viewbox="0 0 16 16"          xmlns="http://www.w3.org/2000/svg">
    <path fill-rule="evenodd" clip-rule="evenodd" d="M8 16C12.4183 16 16 12.4183 16 8C16 3.58172 12.4183 0 8 0C3.58172 0 0 3.58172 0 8C0 12.4183 3.58172 16 8 16ZM4 5.75C4 5.3375 4.36 5 4.8 5H11.2C11.64 5 12 5.3375 12 5.75V10.25C12 10.6625 11.64 11 11.2 11H4.8C4.36 11 4 10.6625 4 10.25V5.75ZM8.424 8.1275L11.04 6.59375C11.14 6.53375 11.2 6.4325 11.2 6.32375C11.2 6.0725 10.908 5.9225 10.68 6.05375L8 7.625L5.32 6.05375C5.092 5.9225 4.8 6.0725 4.8 6.32375C4.8 6.4325 4.86 6.53375 4.96 6.59375L7.576 8.1275C7.836 8.28125 8.164 8.28125 8.424 8.1275Z"/>
  </symbol>
  <symbol id="pen" width="13" height="13" viewbox="0 0 13 13" fill="none" xmlns="http://www.w3.org/2000/svg">
    <path d="M0 10.5002V13.0002H2.5L9.87333 5.62687L7.37333 3.12687L0 10.5002ZM11.8067 3.69354C12.0667 3.43354 12.0667 3.01354 11.8067 2.75354L10.2467 1.19354C9.98667 0.933535 9.56667 0.933535 9.30667 1.19354L8.08667 2.41354L10.5867 4.91354L11.8067 3.69354Z" fill="#9873FF"/>
  </symbol>
  <symbol id="phone" width="16" height="16" viewbox="0 0 16 16" xmlns="http://www.w3.org/2000/svg">
    <g>
    <circle cx="8" cy="8" r="8"/>
    <path d="M11.56 9.50222C11.0133 9.50222 10.4844 9.41333 9.99111 9.25333C9.83556 9.2 9.66222 9.24 9.54222 9.36L8.84444 10.2356C7.58667 9.63556 6.40889 8.50222 5.78222 7.2L6.64889 6.46222C6.76889 6.33778 6.80444 6.16444 6.75556 6.00889C6.59111 5.51556 6.50667 4.98667 6.50667 4.44C6.50667 4.2 6.30667 4 6.06667 4H4.52889C4.28889 4 4 4.10667 4 4.44C4 8.56889 7.43556 12 11.56 12C11.8756 12 12 11.72 12 11.4756V9.94222C12 9.70222 11.8 9.50222 11.56 9.50222Z" fill="white"/>
    </g>
  </symbol>
  <symbol id="tw" width="16" height="16" viewbox="0 0 16 16" fill="none" xmlns="http://www.w3.org/2000/svg">
    <path fill-rule="evenodd" clip-rule="evenodd" d="M8 16C12.4183 16 16 12.4183 16 8C16 3.58172 12.4183 0 8 0C3.58172 0 0 3.58172 0 8C0 12.4183 3.58172 16 8 16ZM3 8C3 5.24 5.24 3 8 3C10.76 3 13 5.24 13 8C13 10.76 10.76 13 8 13C5.24 13 3 10.76 3 8ZM9.5 6C9.5 5.17 8.83 4.5 8 4.5C7.17 4.5 6.5 5.17 6.5 6C6.5 6.83 7.17 7.5 8 7.5C8.83 7.5 9.5 6.83 9.5 6ZM5 9.99C5.645 10.96 6.75 11.6 8 11.6C9.25 11.6 10.355 10.96 11 9.99C10.985 8.995 8.995 8.45 8 8.45C7 8.45 5.015 8.995 5 9.99Z" fill="#9873FF"/>
  </symbol>
  <symbol id="vector_down" width="8" height="8" viewbox="0 0 8 8" xmlns="http://www.w3.org/2000/svg">
    <path d="M8 4L7.295 3.295L4.5 6.085L4.5 0L3.5 0L3.5 6.085L0.71 3.29L0 4L4 8L8 4Z"/>
  </symbol>
  <symbol id="letters" width="16" height="8" viewbox="0 0 16 8" xmlns="http://www.w3.org/2000/svg">
    <path d="M5.37109 8L4.6582 6.01758H1.92871L1.23047 8H0L2.6709 0.832031H3.94043L6.61133 8H5.37109ZM4.35059 5.01172L3.68164 3.06836C3.63281 2.93815 3.56445 2.73307 3.47656 2.45312C3.39193 2.17318 3.33333 1.9681 3.30078 1.83789C3.21289 2.23828 3.08431 2.67611 2.91504 3.15137L2.27051 5.01172H4.35059ZM6.96289 5.80762V4.83105H9.47266V5.80762H6.96289ZM13.0322 5.13867L11.2646 8H9.93164L11.9434 4.87012C11.0319 4.55436 10.5762 3.8903 10.5762 2.87793C10.5762 2.22363 10.8024 1.72396 11.2549 1.37891C11.7074 1.03385 12.373 0.861328 13.252 0.861328H15.3955V8H14.2236V5.13867H13.0322ZM14.2236 1.83789H13.2959C12.8044 1.83789 12.4268 1.92578 12.1631 2.10156C11.9027 2.27409 11.7725 2.55729 11.7725 2.95117C11.7725 3.33529 11.8994 3.63477 12.1533 3.84961C12.4072 4.06445 12.8011 4.17188 13.335 4.17188H14.2236V1.83789Z"/>
  </symbol>
  <symbol id="vk" width="16" height="16" viewbox="0 0 16 16" xmlns="http://www.w3.org/2000/svg">
    <path d="M8 0C3.58187 0 0 3.58171 0 8C0 12.4183 3.58187 16 8 16C12.4181 16 16 12.4183 16 8C16 3.58171 12.4181 0 8 0ZM12.058 8.86523C12.4309 9.22942 12.8254 9.57217 13.1601 9.97402C13.3084 10.1518 13.4482 10.3356 13.5546 10.5423C13.7065 10.8371 13.5693 11.1604 13.3055 11.1779L11.6665 11.1776C11.2432 11.2126 10.9064 11.0419 10.6224 10.7525C10.3957 10.5219 10.1853 10.2755 9.96698 10.037C9.87777 9.93915 9.78382 9.847 9.67186 9.77449C9.44843 9.62914 9.2543 9.67366 9.1263 9.90707C8.99585 10.1446 8.96606 10.4078 8.95362 10.6721C8.93577 11.0586 8.81923 11.1596 8.43147 11.1777C7.60291 11.2165 6.81674 11.0908 6.08606 10.6731C5.44147 10.3047 4.94257 9.78463 4.50783 9.19587C3.66126 8.04812 3.01291 6.78842 2.43036 5.49254C2.29925 5.2007 2.39517 5.04454 2.71714 5.03849C3.25205 5.02817 3.78697 5.02948 4.32188 5.03799C4.53958 5.04143 4.68362 5.166 4.76726 5.37142C5.05633 6.08262 5.4107 6.75928 5.85477 7.38684C5.97311 7.55396 6.09391 7.72059 6.26594 7.83861C6.45582 7.9689 6.60051 7.92585 6.69005 7.71388C6.74734 7.57917 6.77205 7.43513 6.78449 7.29076C6.82705 6.79628 6.83212 6.30195 6.75847 5.80943C6.71263 5.50122 6.53929 5.30218 6.23206 5.24391C6.07558 5.21428 6.0985 5.15634 6.17461 5.06697C6.3067 4.91245 6.43045 4.81686 6.67777 4.81686L8.52951 4.81653C8.82136 4.87382 8.88683 5.00477 8.92645 5.29874L8.92808 7.35656C8.92464 7.47032 8.98521 7.80751 9.18948 7.88198C9.35317 7.936 9.4612 7.80473 9.55908 7.70112C10.0032 7.22987 10.3195 6.67368 10.6029 6.09801C10.7279 5.84413 10.8358 5.58142 10.9406 5.31822C11.0185 5.1236 11.1396 5.02785 11.3593 5.03112L13.1424 5.03325C13.195 5.03325 13.2483 5.03374 13.3004 5.04274C13.6009 5.09414 13.6832 5.22345 13.5903 5.5166C13.4439 5.97721 13.1596 6.36088 12.8817 6.74553C12.5838 7.15736 12.2661 7.55478 11.9711 7.96841C11.7001 8.34652 11.7215 8.53688 12.058 8.86523Z"/>
  </symbol>
  <symbol id="close" width="17" height="17" viewbox="0 0 17 17" xmlns="http://www.w3.org/2000/svg">
    <path fill-rule="evenodd" clip-rule="evenodd" d="M16.2333 1.73333L15.2666 0.766664L8.49991 7.53336L1.73324 0.766696L0.766576 1.73336L7.53324 8.50003L0.766603 15.2667L1.73327 16.2333L8.49991 9.46669L15.2666 16.2334L16.2332 15.2667L9.46657 8.50003L16.2333 1.73333Z"/>
  </symbol>
  <symbol id="plus" width="14" height="14" viewbox="0 0 14 14" fill="#9873FF" xmlns="http://www.w3.org/2000/svg">
    <path d="M7.00001 3.66667C6.63334 3.66667 6.33334 3.96667 6.33334 4.33333V6.33333H4.33334C3.96668 6.33333 3.66668 6.63333 3.66668 7C3.66668 7.36667 3.96668 7.66667 4.33334 7.66667H6.33334V9.66667C6.33334 10.0333 6.63334 10.3333 7.00001 10.3333C7.36668 10.3333 7.66668 10.0333 7.66668 9.66667V7.66667H9.66668C10.0333 7.66667 10.3333 7.36667 10.3333 7C10.3333 6.63333 10.0333 6.33333 9.66668 6.33333H7.66668V4.33333C7.66668 3.96667 7.36668 3.66667 7.00001 3.66667ZM7.00001 0.333332C3.32001 0.333332 0.333344 3.32 0.333344 7C0.333344 10.68 3.32001 13.6667 7.00001 13.6667C10.68 13.6667 13.6667 10.68 13.6667 7C13.6667 3.32 10.68 0.333332 7.00001 0.333332ZM7.00001 12.3333C4.06001 12.3333 1.66668 9.94 1.66668 7C1.66668 4.06 4.06001 1.66667 7.00001 1.66667C9.94001 1.66667 12.3333 4.06 12.3333 7C12.3333 9.94 9.94001 12.3333 7.00001 12.3333Z"/>
  </symbol>
  <symbol id="vector-select" width="10" height="6" viewBox="0 0 10 6" fill="none" xmlns="http://www.w3.org/2000/svg">
    <path d="M0.494999 0.690033C0.249999 0.935033 0.249999 1.33003 0.494999 1.57503L4.65 5.73003C4.845 5.92503 5.16 5.92503 5.355 5.73003L9.51 1.57503C9.755 1.33003 9.755 0.935032 9.51 0.690033C9.265 0.445032 8.87 0.445032 8.625 0.690033L5 4.31003L1.375 0.685034C1.135 0.445034 0.734999 0.445033 0.494999 0.690033Z" fill="#9873FF"/>
  </symbol>
  <symbol id="delete-grey" width="12" height="12" viewBox="0 0 12 12" xmlns="http://www.w3.org/2000/svg">
    <path d="M6 0C2.682 0 0 2.682 0 6C0 9.318 2.682 12 6 12C9.318 12 12 9.318 12 6C12 2.682 9.318 0 6 0ZM6 10.8C3.354 10.8 1.2 8.646 1.2 6C1.2 3.354 3.354 1.2 6 1.2C8.646 1.2 10.8 3.354 10.8 6C10.8 8.646 8.646 10.8 6 10.8ZM8.154 3L6 5.154L3.846 3L3 3.846L5.154 6L3 8.154L3.846 9L6 6.846L8.154 9L9 8.154L6.846 6L9 3.846L8.154 3Z" />
  </symbol>
  <symbol id="spinner" width="100" height="100" viewBox="0 0 100 100" fill="none" xmlns="http://www.w3.org/2000/svg">
    <g clip-path="url(#clip0)">
      <path d="M14.0002 50.0005C14.0002 69.8825 30.1182 86.0005 50.0002 86.0005C69.8822 86.0005 86.0002 69.8825 86.0002 50.0005C86.0002 30.1185 69.8823 14.0005 50.0003 14.0005C45.3513 14.0005 40.9082 14.8815 36.8282 16.4865" stroke="#9873FF" stroke-width="8" stroke-miterlimit="10" stroke-linecap="round"/>
    </g>
    <defs>
      <clippath id="clip0">
        <rect width="100" height="100" fill="white"/>
      </clippath>
    </defs>
  </symbol>
</svg>